<?xml version="1.0" standalone="no"?>
<!DOCTYPE svg PUBLIC "-//W3C//DTD SVG 20010904//EN"
 "http://www.w3.org/TR/2001/REC-SVG-20010904/DTD/svg10.dtd">
<svg version="1.0" xmlns="http://www.w3.org/2000/svg"
 width="195.000000pt" height="117.000000pt" viewBox="0 0 195.000000 117.000000"
 preserveAspectRatio="xMidYMid meet">
<metadata>
Created by potrace 1.16, written by Peter Selinger 2001-2019
</metadata>
<g transform="translate(0.000000,117.000000) scale(0.100000,-0.100000)"
fill="#000000" stroke="none">
<path d="M45 1127 l-35 -35 0 -291 0 -291 109 0 109 0 13 31 c20 51 60 90 114
115 90 42 171 28 245 -44 31 -30 52 -61 59 -87 32 -118 -13 -236 -111 -286
-105 -54 -223 -22 -291 79 l-28 42 -110 0 -109 0 0 -159 c0 -132 3 -162 16
-175 36 -37 104 -4 125 62 6 20 14 40 16 45 2 4 25 -11 50 -32 109 -97 294
-116 433 -46 247 125 309 484 119 690 -134 146 -342 177 -501 76 l-47 -30 -3
154 c-3 151 -4 155 -29 181 -16 16 -41 28 -67 31 -37 5 -45 2 -77 -30z"/>
<path d="M1123 1150 c-13 -5 -32 -24 -43 -42 -19 -31 -20 -51 -20 -315 l0
-283 109 0 109 0 22 45 c50 104 183 153 285 106 86 -39 135 -117 135 -216 0
-76 -25 -130 -80 -178 -89 -76 -215 -70 -298 14 -23 22 -44 49 -47 60 -6 17
-17 19 -121 19 l-114 0 0 -153 c0 -122 3 -157 16 -175 34 -49 114 -12 130 61
10 48 14 51 43 24 117 -109 291 -136 437 -68 89 42 157 108 202 199 34 69 37
84 40 176 3 84 0 112 -18 165 -56 167 -193 276 -361 288 -84 7 -152 -9 -224
-52 l-55 -34 0 151 0 150 -34 34 c-35 35 -68 42 -113 24z"/>
</g>
</svg>
